<svg xmlns:xlink="http://www.w3.org/1999/xlink" xmlns="http://www.w3.org/2000/svg" class="MuiSvgIcon-root MuiSvgIcon-fontSizeMedium css-vubbuv" focusable="false" viewBox="0 0 36 40" aria-hidden="true" width="36"  height="40" ><path d="M5.84961 5C5.84961 2.26562 8.03711 0 10.8496 0H23.0371C23.9746 0 24.9902 0.46875 25.6934 1.17188L34.6777 10.1562C35.3809 10.8594 35.8496 11.875 35.8496 12.8125V35C35.8496 37.8125 33.584 40 30.8496 40H10.8496C8.03711 40 5.84961 37.8125 5.84961 35V5ZM33.3496 15H24.5996C22.4902 15 20.8496 13.3594 20.8496 11.25V2.5H10.8496C9.44336 2.5 8.34961 3.67188 8.34961 5V35C8.34961 36.4062 9.44336 37.5 10.8496 37.5H30.8496C32.1777 37.5 33.3496 36.4062 33.3496 35V15ZM32.959 11.9531L23.8965 2.89063C23.7402 2.73438 23.5059 2.65625 23.3496 2.57812V11.25C23.3496 11.9531 23.8965 12.5 24.5996 12.5H33.2715C33.1934 12.3438 33.1152 12.1094 32.959 11.9531Z" fill="#404040"></path><rect x="0.148438" y="20.3647" width="24.5714" height="12.5714" rx="2" fill="#D93221"></rect><path d="M6.40738 26.8515C6.64509 26.8515 6.85385 26.821 7.03366 26.7601C7.21652 26.6991 7.36738 26.6138 7.48623 26.5041C7.60814 26.3913 7.69957 26.2557 7.76052 26.0972C7.82147 25.9388 7.85195 25.762 7.85195 25.567C7.85195 25.375 7.82147 25.2028 7.76052 25.0504C7.70261 24.898 7.61423 24.7685 7.49538 24.6618C7.37652 24.5551 7.22566 24.4744 7.0428 24.4195C6.86299 24.3616 6.65118 24.3327 6.40738 24.3327H5.42909V26.8515H6.40738ZM6.40738 23.4961C6.83709 23.4961 7.2089 23.5464 7.5228 23.647C7.83976 23.7475 8.10033 23.8892 8.30452 24.0721C8.51176 24.2519 8.66566 24.4698 8.76623 24.7258C8.8668 24.9788 8.91709 25.2591 8.91709 25.567C8.91709 25.8809 8.86376 26.1689 8.75709 26.431C8.65042 26.69 8.49195 26.914 8.28166 27.103C8.07138 27.2889 7.80928 27.4351 7.49538 27.5418C7.18452 27.6454 6.82185 27.6972 6.40738 27.6972H5.42909V30.0789H4.35938V23.4961H6.40738Z" fill="#FFFFFF"></path><path d="M15.718 26.7875C15.718 27.2751 15.6388 27.7216 15.4803 28.127C15.3218 28.5292 15.0978 28.8751 14.8083 29.1647C14.5218 29.4542 14.1759 29.6797 13.7706 29.8412C13.3683 29.9997 12.9203 30.0789 12.4266 30.0789H9.93973V23.4961H12.4266C12.9203 23.4961 13.3683 23.5769 13.7706 23.7384C14.1759 23.8969 14.5218 24.1209 14.8083 24.4104C15.0978 24.6999 15.3218 25.0473 15.4803 25.4527C15.6388 25.855 15.718 26.2999 15.718 26.7875ZM14.6254 26.7875C14.6254 26.4096 14.5736 26.0698 14.47 25.7681C14.3694 25.4664 14.2232 25.2119 14.0312 25.0047C13.8422 24.7974 13.6121 24.639 13.3409 24.5292C13.0696 24.4165 12.7649 24.3601 12.4266 24.3601H11.014V29.215H12.4266C12.7649 29.215 13.0696 29.1601 13.3409 29.0504C13.6121 28.9407 13.8422 28.7822 14.0312 28.575C14.2232 28.3647 14.3694 28.1102 14.47 27.8115C14.5736 27.5098 14.6254 27.1685 14.6254 26.7875Z" fill="#FFFFFF"></path><path d="M17.9694 24.3601V26.4675H20.5431V27.3315H17.9694V30.0789H16.8951V23.4961H21.0002V24.3601H17.9694Z" fill="#FFFFFF"></path></svg>